<svg xmlns="http://www.w3.org/2000/svg" width="260" height="58" viewBox="0 0 260 58" fill="none"><path d="M100.44 2V55.7578H85.8161V2H100.44Z" fill="black"></path><path d="M122.101 2L133.148 39.9034H133.569L144.616 2H161.134L143.354 55.7578H123.363L105.583 2H122.101Z" fill="black"></path><path d="M166.322 55.7578V2H205.145V13.7595H180.947V22.9991H203.146V34.7586H180.947V43.9984H205.04V55.7578H166.322Z" fill="black"></path><path d="M210.925 13.7595V2H257.744V13.7595H241.542V55.7578H227.128V13.7595H210.925Z" fill="black"></path><path fill-rule="evenodd" clip-rule="evenodd" d="M35.8601 55.7578V2H59.0295C63.0134 2 66.4992 2.72622 69.4871 4.17866C72.475 5.6311 74.7989 7.72228 76.4589 10.4522C78.1186 13.182 78.9487 16.4544 78.9487 20.2693C78.9487 24.1191 78.0924 27.3652 76.3802 30.0076C74.7982 32.4742 72.6147 34.3763 69.8302 35.7146L80.7309 55.7579H64.9005L55.4761 38.0136L58.5052 38.0136H55.4761H50.4326V55.7578H35.8601ZM55.5698 26.6741C57.2821 26.6741 58.7411 26.4639 59.9468 26.044C61.1699 25.6065 62.1046 24.9153 62.7511 23.9704C63.4151 23.0254 63.7471 21.7917 63.7471 20.2693C63.7471 18.7293 63.4151 17.4781 62.7511 16.5157C62.1046 15.5357 61.1699 14.8182 59.9468 14.3633C58.7411 13.8908 57.2821 13.6545 55.5698 13.6545H50.4326V26.6741H55.5698Z" fill="black"></path><path d="M29.629 2.24217V56H15.0564V15.6816H14.7419L3 22.7164V10.3268L16.2096 2.24217H29.629Z" fill="#DA2128"></path></svg>